HIERARCHY
ROOT hip
{
  OFFSET 0.00112043 5.09927 -9.65472
  CHANNELS 6 Xposition Yposition Zposition Zrotation Xrotation Yrotation
  JOINT abdomen
  {
    OFFSET 0 -1.186 -1.5018
    CHANNELS 3 Zrotation Xrotation Yrotation
    JOINT abdomen2
    {
      OFFSET 0 9.964 0.2134
      CHANNELS 3 Zrotation Xrotation Yrotation
      JOINT chest
      {
        OFFSET 0 13.134 -3.2573
        CHANNELS 3 Zrotation Xrotation Yrotation
        JOINT neck
        {
          OFFSET 0 20.686 -1.6905
          CHANNELS 3 Zrotation Xrotation Yrotation
          JOINT head
          {
            OFFSET 0 7.238 -0.1237
            CHANNELS 3 Zrotation Xrotation Yrotation
            End Site
            {
              OFFSET 0 0 0
            }
          }
        }
        JOINT lCollar
        {
          OFFSET 1.7069 20.075 5.0056
          CHANNELS 3 Zrotation Xrotation Yrotation
          JOINT lShldr
          {
            OFFSET 13.6458 -0.047 -4.849
            CHANNELS 3 Zrotation Xrotation Yrotation
            JOINT lForeArm
            {
              OFFSET 28.3255 -0.9759 2.2888
              CHANNELS 3 Zrotation Xrotation Yrotation
              JOINT lHand
              {
                OFFSET 22.1583 -0.53 10.8316
                CHANNELS 3 Zrotation Xrotation Yrotation
                JOINT lThumb1
                {
                  OFFSET 0.786 0.112 2.5817
                  CHANNELS 3 Zrotation Xrotation Yrotation
                  JOINT lThumb2
                  {
                    OFFSET 0.3601 -0.878 4.2331
                    CHANNELS 3 Zrotation Xrotation Yrotation
                    JOINT lThumb2_End
                    {
                      OFFSET 1.8127 -1.216 2.2227
                      CHANNELS 3 Zrotation Xrotation Yrotation
                      End Site
                      {
                        OFFSET 0.0181 -0.0122 0.0222
                      }
                    }
                  }
                }
                JOINT lCarpal1
                {
                  OFFSET 0.9571 1.114 1.7695
                  CHANNELS 3 Zrotation Xrotation Yrotation
                  JOINT lIndex1
                  {
                    OFFSET 4.1246 0.487 4.1451
                    CHANNELS 3 Zrotation Xrotation Yrotation
                    JOINT lIndex2
                    {
                      OFFSET 3.4052 -1.454 2.7682
                      CHANNELS 3 Zrotation Xrotation Yrotation
                      JOINT lIndex2_End
                      {
                        OFFSET 1.4531 -1.795 1.2713
                        CHANNELS 3 Zrotation Xrotation Yrotation
                        End Site
                        {
                          OFFSET 0.0145 -0.0179 0.0127
                        }
                      }
                    }
                  }
                  JOINT lMid1
                  {
                    OFFSET 5.6954 0.21 2.1184
                    CHANNELS 3 Zrotation Xrotation Yrotation
                    JOINT lMid2
                    {
                      OFFSET 3.9766 -1.54 2.3863
                      CHANNELS 3 Zrotation Xrotation Yrotation
                      JOINT lMid2_End
                      {
                        OFFSET 1.4042 -1.926 1.125
                        CHANNELS 3 Zrotation Xrotation Yrotation
                        End Site
                        {
                          OFFSET 0.014 -0.0193 0.0113
                        }
                      }
                    }
                  }
                }
                JOINT lCarpal2
                {
                  OFFSET 2.0956 0.66 -0.3894
                  CHANNELS 3 Zrotation Xrotation Yrotation
                  JOINT lRing1
                  {
                    OFFSET 5.0395 -0.09 2.4971
                    CHANNELS 3 Zrotation Xrotation Yrotation
                    JOINT lRing2
                    {
                      OFFSET 3.7921 -1.552 1.4806
                      CHANNELS 3 Zrotation Xrotation Yrotation
                      JOINT lRing2_End
                      {
                        OFFSET 1.4655 -1.808 0.9609
                        CHANNELS 3 Zrotation Xrotation Yrotation
                        End Site
                        {
                          OFFSET 0.0147 -0.0181 0.0096
                        }
                      }
                    }
                  }
                  JOINT lPinky1
                  {
                    OFFSET 4.9141 -1.269 0.3591
                    CHANNELS 3 Zrotation Xrotation Yrotation
                    JOINT lPinky2
                    {
                      OFFSET 3.1477 -1.685 0.8462
                      CHANNELS 3 Zrotation Xrotation Yrotation
                      JOINT lPinky2_End
                      {
                        OFFSET 0.8055 -1.585 0.7955
                        CHANNELS 3 Zrotation Xrotation Yrotation
                        End Site
                        {
                          OFFSET 0.0081 -0.0158 0.008
                        }
                      }
                    }
                  }
                }
              }
            }
          }
        }
        JOINT rCollar
        {
          OFFSET -1.7069 20.075 5.0056
          CHANNELS 3 Zrotation Xrotation Yrotation
          JOINT rShldr
          {
            OFFSET -13.6458 -0.047 -4.849
            CHANNELS 3 Zrotation Xrotation Yrotation
            JOINT rForeArm
            {
              OFFSET -28.3255 -0.9759 2.2888
              CHANNELS 3 Zrotation Xrotation Yrotation
              JOINT rHand
              {
                OFFSET -22.1583 -0.53 10.8316
                CHANNELS 3 Zrotation Xrotation Yrotation
                JOINT rThumb1
                {
                  OFFSET -0.786 0.112 2.5817
                  CHANNELS 3 Zrotation Xrotation Yrotation
                  JOINT rThumb2
                  {
                    OFFSET -0.3601 -0.878 4.2331
                    CHANNELS 3 Zrotation Xrotation Yrotation
                    JOINT rThumb2_End
                    {
                      OFFSET -1.8127 -1.216 2.2227
                      CHANNELS 3 Zrotation Xrotation Yrotation
                      End Site
                      {
                        OFFSET -0.0181 -0.0122 0.0222
                      }
                    }
                  }
                }
                JOINT rCarpal1
                {
                  OFFSET -0.9571 1.114 1.7695
                  CHANNELS 3 Zrotation Xrotation Yrotation
                  JOINT rIndex1
                  {
                    OFFSET -4.1246 0.487 4.1451
                    CHANNELS 3 Zrotation Xrotation Yrotation
                    JOINT rIndex2
                    {
                      OFFSET -3.4052 -1.454 2.7682
                      CHANNELS 3 Zrotation Xrotation Yrotation
                      JOINT rIndex2_End
                      {
                        OFFSET -1.4531 -1.795 1.2713
                        CHANNELS 3 Zrotation Xrotation Yrotation
                        End Site
                        {
                          OFFSET -0.0145 -0.018 0.0127
                        }
                      }
                    }
                  }
                  JOINT rMid1
                  {
                    OFFSET -5.6954 0.21 2.1184
                    CHANNELS 3 Zrotation Xrotation Yrotation
                    JOINT rMid2
                    {
                      OFFSET -3.9766 -1.54 2.3863
                      CHANNELS 3 Zrotation Xrotation Yrotation
                      JOINT rMid2_End
                      {
                        OFFSET -1.4042 -1.926 1.125
                        CHANNELS 3 Zrotation Xrotation Yrotation
                        End Site
                        {
                          OFFSET -0.014 -0.0193 0.0113
                        }
                      }
                    }
                  }
                }
                JOINT rCarpal2
                {
                  OFFSET -2.0956 0.66 -0.3894
                  CHANNELS 3 Zrotation Xrotation Yrotation
                  JOINT rRing1
                  {
                    OFFSET -5.0395 -0.09 2.4971
                    CHANNELS 3 Zrotation Xrotation Yrotation
                    JOINT rRing2
                    {
                      OFFSET -3.7921 -1.552 1.4806
                      CHANNELS 3 Zrotation Xrotation Yrotation
                      JOINT rRing2_End
                      {
                        OFFSET -1.4655 -1.808 0.9609
                        CHANNELS 3 Zrotation Xrotation Yrotation
                        End Site
                        {
                          OFFSET -0.0147 -0.0181 0.0096
                        }
                      }
                    }
                  }
                  JOINT rPinky1
                  {
                    OFFSET -4.9141 -1.269 0.3592
                    CHANNELS 3 Zrotation Xrotation Yrotation
                    JOINT rPinky2
                    {
                      OFFSET -3.1477 -1.685 0.8462
                      CHANNELS 3 Zrotation Xrotation Yrotation
                      JOINT rPinky2_End
                      {
                        OFFSET -0.8055 -1.585 0.7955
                        CHANNELS 3 Zrotation Xrotation Yrotation
                        End Site
                        {
                          OFFSET -0.0081 -0.0158 0.008
                        }
                      }
                    }
                  }
                }
              }
            }
          }
        }
      }
    }
  }
  JOINT lThigh
  {
    OFFSET 8.367 -8.2066 0.5982
    CHANNELS 3 Zrotation Xrotation Yrotation
    JOINT lShin
    {
      OFFSET 2.1923 -43.463 -0.4932
      CHANNELS 3 Zrotation Xrotation Yrotation
      JOINT lFoot
      {
        OFFSET 0.7333 -45.8593 -2.6451
        CHANNELS 3 Zrotation Xrotation Yrotation
        End Site
        {
          OFFSET 2.6618 -4.2699 12.3931
        }
      }
    }
  }
  JOINT rThigh
  {
    OFFSET -8.367 -8.2066 0.5982
    CHANNELS 3 Zrotation Xrotation Yrotation
    JOINT rShin
    {
      OFFSET -2.1923 -43.463 -0.4931
      CHANNELS 3 Zrotation Xrotation Yrotation
      JOINT rFoot
      {
        OFFSET -0.7333 -45.8593 -2.6451
        CHANNELS 3 Zrotation Xrotation Yrotation
        End Site
        {
          OFFSET -2.6618 -4.2699 12.3931
        }
      }
    }
  }
}
MOTION
Frames:	4
Frame Time:	0.0333333
0 91.7903 2.51682 0 0 -0 0 0 -0 0 0 -0 0 0 -0 0 0 -0 0 0 -0 0 0 -0 1.66051 0.0835086 5.75766 -0.0175111 0.895433 15.7816 7.95139e-016 -1.98785e-016 -0 5.46658e-016 -3.97569e-016 -0 5.96354e-016 0 -0 3.97569e-016 1.98785e-016 9.54166e-015 1.49089e-016 -3.97569e-016 -0 6.4605e-016 0 3.18055e-015 5.96354e-016 0 3.18055e-015 8.94531e-016 -1.98785e-016 6.36111e-015 6.4605e-016 0 3.18055e-015 5.96354e-016 0 3.18055e-015 8.94531e-016 -1.98785e-016 6.36111e-015 1.49089e-016 -3.97569e-016 -0 6.4605e-016 0 3.18055e-015 5.96354e-016 0 3.18055e-015 8.94531e-016 -1.98785e-016 6.36111e-015 6.4605e-016 0 3.18055e-015 5.96354e-016 0 3.18055e-015 8.94531e-016 -1.98785e-016 6.36111e-015 0 0 -0 -1.4496 0.0636048 -5.0245 -1.74811 1.20616 -16.8394 -1.19271e-015 1.98785e-016 -3.18055e-015 -3.97569e-016 1.98785e-016 -3.18055e-015 -2.98177e-016 1.98785e-016 -3.18055e-015 -2.98177e-016 3.97569e-016 -0 4.96962e-016 0 -6.36111e-015 -9.93923e-017 3.97569e-016 -0 -8.94531e-016 5.96354e-016 -0 -3.97569e-016 3.97569e-016 -0 -9.93923e-017 3.97569e-016 -0 -8.94531e-016 5.96354e-016 -0 -3.97569e-016 3.97569e-016 -0 4.96962e-016 0 -6.36111e-015 -9.93923e-017 3.97569e-016 -0 -8.94531e-016 5.96354e-016 -0 -3.97569e-016 3.97569e-016 -0 -9.93923e-017 3.97569e-016 -0 -8.94531e-016 5.96354e-016 -0 -3.97569e-016 3.97569e-016 -0 -4.66111 -0.998717 0.12318 0.00986924 1.54847 0.176523 4.65186 -0.572283 -0.254274 4.66111 -0.998765 -0.123176 -0.00986867 1.54869 -0.176537 -4.65186 -0.572453 0.25427 
0.060276 88.0753 -0.355352 0 2.72662 -0 -0.442832 0.958216 3.24858 -0.93946 1.88976 6.5058 -0.93946 1.88976 6.5058 14.9081 -0.0890954 -0.106687 0.00631763 -0.0724765 -0.0516457 28.5907 8.96764 -78.8208 -39.3907 -15.6882 -7.17579 -64.7087 -35.3664 -65.3348 -16.2462 40.8523 8.39286 -4.80749e-007 4.3649e-007 5.46085e-007 7.38239e-006 -2.79133e-006 6.32394e-006 6.48841e-006 -1.43824e-006 2.89176e-006 -3.18055e-015 3.18055e-015 -7.95139e-015 -4.80749e-007 4.3649e-007 5.46085e-007 7.38239e-006 -2.79133e-006 6.32394e-006 6.48841e-006 -1.43824e-006 2.89176e-006 -4.80749e-007 4.3649e-007 5.46085e-007 7.38239e-006 -2.79133e-006 6.32394e-006 6.48841e-006 -1.43824e-006 2.89176e-006 -3.18055e-015 3.18055e-015 -7.95139e-015 -4.80749e-007 4.3649e-007 5.46085e-007 7.38239e-006 -2.79133e-006 6.32394e-006 6.48841e-006 -1.43824e-006 2.89176e-006 -4.80749e-007 4.3649e-007 5.46085e-007 7.38239e-006 -2.79133e-006 6.32394e-006 6.48841e-006 -1.43824e-006 2.89176e-006 -1.00074 -19.4842 7.55393 79.8839 6.56755 16.1885 -14.2701 -6.35173 25.7081 69.1475 27.4885 -29.3465 7.95139e-016 -1.2921e-014 2.69602e-015 -2.09617e-006 -1.36121e-006 2.0155e-006 1.59028e-015 0 -5.08143e-015 -9.39679e-033 1.98785e-016 2.70844e-015 7.95139e-016 -1.35174e-014 2.68359e-015 -2.09617e-006 -1.36121e-006 2.0155e-006 1.59028e-015 -7.95139e-016 -4.98204e-015 7.95139e-016 -1.35174e-014 2.68359e-015 -2.09617e-006 -1.36121e-006 2.0155e-006 1.59028e-015 -7.95139e-016 -4.98204e-015 -9.39679e-033 1.98785e-016 2.70844e-015 7.95139e-016 -1.35174e-014 2.68359e-015 -2.09617e-006 -1.36121e-006 2.0155e-006 1.59028e-015 -7.95139e-016 -4.98204e-015 7.95139e-016 -1.35174e-014 2.68359e-015 -2.09617e-006 -1.36121e-006 2.0155e-006 1.59028e-015 -7.95139e-016 -4.98204e-015 7.36951 -28.6268 15.243 1.30782 39.6256 0.284521 -10.1463 -12.7585 3.92237 -17.5901 -19.7769 -12.1988 2.05367 18.6423 -1.7537 19.8858 1.10875 -8.39563 
0.0622883 87.8473 0.298193 0 0.894726 -0 -0.340083 1.25536 3.06004 -0.746995 2.49076 6.12964 -0.746995 2.49076 6.12964 14.1616 -0.408005 -0.487583 0.0282588 -0.331417 -0.236078 26.2496 11.1118 -74.8023 -36.7707 -14.8039 -6.36156 -59.3161 -37.7847 -60.9894 -14.968 38.4022 7.83365 -4.6142e-007 4.84696e-007 5.22818e-007 -9.22841e-007 9.69392e-007 1.04564e-006 -4.6142e-007 4.84696e-007 5.22818e-007 1.76556e-031 -6.36111e-015 1.59028e-015 -4.6142e-007 4.84696e-007 5.22818e-007 -9.22841e-007 9.69392e-007 1.04564e-006 -4.6142e-007 4.84696e-007 5.22818e-007 -4.6142e-007 4.84696e-007 5.22818e-007 -9.22841e-007 9.69392e-007 1.04564e-006 -4.6142e-007 4.84696e-007 5.22818e-007 1.76556e-031 -6.36111e-015 1.59028e-015 -4.6142e-007 4.84696e-007 5.22818e-007 -9.22841e-007 9.69392e-007 1.04564e-006 -4.6142e-007 4.84696e-007 5.22818e-007 -4.6142e-007 4.84696e-007 5.22818e-007 -9.22841e-007 9.69392e-007 1.04564e-006 -4.6142e-007 4.84696e-007 5.22818e-007 -0.511271 -18.8914 8.03662 74.3766 5.85126 14.9106 -13.9775 -6.29149 22.8475 65.0742 26.0295 -26.9713 -5.40704e-031 -1.11319e-014 -2.78299e-015 2.14503e-006 6.688e-007 5.92813e-006 -1.94225e-006 -1.56909e-006 2.04364e-006 0 0 -2.78299e-015 -1.59028e-015 -9.54166e-015 7.95139e-016 2.14503e-006 6.688e-007 5.92813e-006 -1.94225e-006 -1.56909e-006 2.04364e-006 -1.59028e-015 -9.54166e-015 7.95139e-016 2.14503e-006 6.688e-007 5.92813e-006 -1.94225e-006 -1.56909e-006 2.04364e-006 0 0 -2.78299e-015 -1.59028e-015 -9.54166e-015 7.95139e-016 2.14503e-006 6.688e-007 5.92813e-006 -1.94225e-006 -1.56909e-006 2.04364e-006 -1.59028e-015 -9.54166e-015 7.95139e-016 2.14503e-006 6.688e-007 5.92813e-006 -1.94225e-006 -1.56909e-006 2.04364e-006 6.30129 -25.6039 14.1717 1.49297 38.7166 0.0862902 -9.62136 -13.1053 3.26109 -16.2265 -17.7472 -11.5054 1.58995 19.7537 -1.52661 18.7002 -0.17666 -6.90745 
0.0702305 87.4089 0.752521 -0 -0.686922 -0 -0.298732 1.58667 3.06004 -0.682197 3.15514 6.13181 -0.682196 3.15514 6.13181 14.2831 -0.715197 -0.853024 0.0485727 -0.580161 -0.413115 26.2496 11.1118 -74.8024 -36.7707 -14.8039 -6.36153 -59.3161 -37.7847 -60.9894 -14.9854 38.4074 7.82798 -4.61238e-007 4.84512e-007 5.23048e-007 -4.61238e-007 4.84512e-007 5.23048e-007 -5.5681e-006 2.16268e-006 -2.12076e-006 -3.53113e-031 -3.18055e-015 -6.36111e-015 -4.61238e-007 4.84512e-007 5.23048e-007 -4.61238e-007 4.84512e-007 5.23048e-007 -5.5681e-006 2.16268e-006 -2.12076e-006 -4.61238e-007 4.84512e-007 5.23048e-007 -4.61238e-007 4.84512e-007 5.23048e-007 -5.5681e-006 2.16268e-006 -2.12076e-006 -3.53113e-031 -3.18055e-015 -6.36111e-015 -4.61238e-007 4.84512e-007 5.23048e-007 -4.61238e-007 4.84512e-007 5.23048e-007 -5.5681e-006 2.16268e-006 -2.12076e-006 -4.61238e-007 4.84512e-007 5.23048e-007 -4.61238e-007 4.84512e-007 5.23048e-007 -5.5681e-006 2.16268e-006 -2.12076e-006 0.0476581 -19.3892 8.96674 73.5624 5.48675 14.8882 -14.204 -6.49178 22.526 65.6237 25.6346 -27.1405 -1.59028e-015 4.77083e-015 -1.23246e-014 -1.9417e-006 -1.56934e-006 2.0429e-006 -1.9417e-006 -1.56934e-006 2.0429e-006 1.59028e-015 0 -2.98177e-015 -4.77083e-015 -3.18055e-015 5.96354e-016 -1.9417e-006 -1.56934e-006 2.0429e-006 -1.9417e-006 -1.56934e-006 2.0429e-006 -4.77083e-015 -3.18055e-015 5.96354e-016 -1.9417e-006 -1.56934e-006 2.0429e-006 -1.9417e-006 -1.56934e-006 2.0429e-006 1.59028e-015 0 -2.98177e-015 -4.77083e-015 -3.18055e-015 5.96354e-016 -1.9417e-006 -1.56934e-006 2.0429e-006 -1.9417e-006 -1.56934e-006 2.0429e-006 -4.77083e-015 -3.18055e-015 5.96354e-016 -1.9417e-006 -1.56934e-006 2.0429e-006 -1.9417e-006 -1.56934e-006 2.0429e-006 6.35119 -24.2387 14.1861 1.81887 40.0148 -0.115121 -9.88205 -14.1372 2.89694 -16.374 -16.8394 -11.5824 1.24252 21.7786 -1.41063 18.96 -1.316 -6.00021 
